<svg width="149" height="25" viewBox="0 0 149 25" fill="none" xmlns="http://www.w3.org/2000/svg">
    <path d="M11.4773 0.72727H15.6591V17.0909C15.6515 18.5909 15.3333 19.8826 14.7045 20.9659C14.0758 22.0417 13.197 22.8712 12.0682 23.4545C10.947 24.0303 9.64015 24.3182 8.14773 24.3182C6.78409 24.3182 5.55682 24.0758 4.46591 23.5909C3.38257 23.0985 2.52273 22.3712 1.88636 21.4091C1.25 20.447 0.931816 19.25 0.931816 17.8182H5.125C5.13257 18.447 5.26894 18.9886 5.53409 19.4432C5.80682 19.8977 6.18182 20.2462 6.65909 20.4886C7.13636 20.7311 7.6856 20.8523 8.30682 20.8523C8.98106 20.8523 9.55303 20.7121 10.0227 20.4318C10.4924 20.1439 10.8485 19.7197 11.0909 19.1591C11.3409 18.5985 11.4697 17.9091 11.4773 17.0909V0.72727Z" fill="#B842CF"/>
    <path d="M41.0284 12.3636C41.0284 14.8712 40.5587 17.0189 39.6193 18.8068C38.6875 20.5871 37.4148 21.9508 35.8011 22.8977C34.1951 23.8447 32.3731 24.3182 30.3352 24.3182C28.2973 24.3182 26.4716 23.8447 24.858 22.8977C23.2519 21.9432 21.9792 20.5758 21.0398 18.7955C20.108 17.0076 19.642 14.8636 19.642 12.3636C19.642 9.85606 20.108 7.71212 21.0398 5.93182C21.9792 4.14394 23.2519 2.77651 24.858 1.82954C26.4716 0.882573 28.2973 0.409088 30.3352 0.409088C32.3731 0.409088 34.1951 0.882573 35.8011 1.82954C37.4148 2.77651 38.6875 4.14394 39.6193 5.93182C40.5587 7.71212 41.0284 9.85606 41.0284 12.3636ZM36.7898 12.3636C36.7898 10.5985 36.5133 9.10985 35.9602 7.89772C35.4148 6.67803 34.6572 5.75757 33.6875 5.13636C32.7178 4.50757 31.6004 4.19318 30.3352 4.19318C29.0701 4.19318 27.9526 4.50757 26.983 5.13636C26.0133 5.75757 25.2519 6.67803 24.6989 7.89772C24.1534 9.10985 23.8807 10.5985 23.8807 12.3636C23.8807 14.1288 24.1534 15.6212 24.6989 16.8409C25.2519 18.053 26.0133 18.9735 26.983 19.6023C27.9526 20.2235 29.0701 20.5341 30.3352 20.5341C31.6004 20.5341 32.7178 20.2235 33.6875 19.6023C34.6572 18.9735 35.4148 18.053 35.9602 16.8409C36.5133 15.6212 36.7898 14.1288 36.7898 12.3636Z" fill="#B842CF"/>
    <path d="M45.0142 24V0.72727H53.9233C55.6051 0.72727 57.0028 0.992421 58.1165 1.52272C59.2377 2.04545 60.0748 2.76136 60.6278 3.67045C61.1884 4.57954 61.4687 5.60985 61.4687 6.76136C61.4687 7.70833 61.2869 8.51894 60.9233 9.19318C60.5597 9.85985 60.071 10.4015 59.4574 10.8182C58.8437 11.2348 58.1581 11.5341 57.4006 11.7159V11.9432C58.2263 11.9886 59.018 12.2424 59.7756 12.7045C60.5407 13.1591 61.1657 13.803 61.6506 14.6364C62.1354 15.4697 62.3778 16.4773 62.3778 17.6591C62.3778 18.8636 62.0862 19.947 61.5028 20.9091C60.9195 21.8636 60.0407 22.6174 58.8665 23.1705C57.6922 23.7235 56.215 24 54.4347 24H45.0142ZM49.2301 20.4773H53.7642C55.2945 20.4773 56.3968 20.1856 57.071 19.6023C57.7528 19.0114 58.0937 18.2538 58.0937 17.3295C58.0937 16.6402 57.9233 16.0189 57.5824 15.4659C57.2415 14.9053 56.7566 14.4659 56.1278 14.1477C55.4991 13.822 54.7491 13.6591 53.8778 13.6591H49.2301V20.4773ZM49.2301 10.625H53.4006C54.1278 10.625 54.7831 10.4924 55.3665 10.2273C55.9498 9.95454 56.4081 9.57197 56.7415 9.07954C57.0824 8.57954 57.2528 7.98863 57.2528 7.30682C57.2528 6.4053 56.9347 5.66288 56.2983 5.07954C55.6695 4.49621 54.7339 4.20454 53.4915 4.20454H49.2301V10.625Z" fill="#B842CF"/>
    <path d="M78.6932 7.125C78.5871 6.13257 78.1402 5.35985 77.3523 4.80682C76.572 4.25379 75.5568 3.97727 74.3068 3.97727C73.428 3.97727 72.6742 4.10985 72.0455 4.375C71.4167 4.64015 70.9356 5 70.6023 5.45454C70.2689 5.90909 70.0985 6.42803 70.0909 7.01136C70.0909 7.49621 70.2008 7.91666 70.4205 8.27273C70.6477 8.62879 70.9545 8.93182 71.3409 9.18182C71.7273 9.42424 72.1553 9.62879 72.625 9.79545C73.0947 9.96212 73.5682 10.1023 74.0455 10.2159L76.2273 10.7614C77.1061 10.9659 77.9508 11.2424 78.7614 11.5909C79.5795 11.9394 80.3106 12.3788 80.9545 12.9091C81.6061 13.4394 82.1212 14.0795 82.5 14.8295C82.8788 15.5795 83.0682 16.4583 83.0682 17.4659C83.0682 18.8295 82.7197 20.0303 82.0227 21.0682C81.3258 22.0985 80.3182 22.9053 79 23.4886C77.6894 24.0644 76.1023 24.3523 74.2386 24.3523C72.428 24.3523 70.8561 24.072 69.5227 23.5114C68.197 22.9508 67.1591 22.1326 66.4091 21.0568C65.6667 19.9811 65.2652 18.6705 65.2045 17.125H69.3523C69.4129 17.9356 69.6629 18.6098 70.1023 19.1477C70.5417 19.6856 71.1136 20.0871 71.8182 20.3523C72.5303 20.6174 73.3258 20.75 74.2045 20.75C75.1212 20.75 75.9242 20.6136 76.6136 20.3409C77.3106 20.0606 77.8561 19.6742 78.25 19.1818C78.6439 18.6818 78.8447 18.0985 78.8523 17.4318C78.8447 16.8258 78.6667 16.3258 78.3182 15.9318C77.9697 15.5303 77.4811 15.197 76.8523 14.9318C76.2311 14.6591 75.5038 14.4167 74.6705 14.2045L72.0227 13.5227C70.1061 13.0303 68.5909 12.2841 67.4773 11.2841C66.3712 10.2765 65.8182 8.93939 65.8182 7.27272C65.8182 5.90151 66.1894 4.70075 66.9318 3.67045C67.6818 2.64015 68.7008 1.84091 69.9886 1.27272C71.2765 0.696967 72.7348 0.409088 74.3636 0.409088C76.0151 0.409088 77.4621 0.696967 78.7045 1.27272C79.9545 1.84091 80.9356 2.63257 81.6477 3.64772C82.3598 4.6553 82.7273 5.81439 82.75 7.125H78.6932Z" fill="#B842CF"/>
    <path d="M86.8267 24V0.72727H95.554C97.3419 0.72727 98.8419 1.0606 100.054 1.72727C101.274 2.39394 102.194 3.3106 102.815 4.47727C103.444 5.63636 103.759 6.95454 103.759 8.43182C103.759 9.92424 103.444 11.25 102.815 12.4091C102.187 13.5682 101.259 14.4811 100.031 15.1477C98.804 15.8068 97.2926 16.1364 95.4972 16.1364H89.7131V12.6705H94.929C95.9744 12.6705 96.8305 12.4886 97.4972 12.125C98.1638 11.7614 98.6562 11.2614 98.9744 10.625C99.3002 9.98863 99.4631 9.25757 99.4631 8.43182C99.4631 7.60606 99.3002 6.87879 98.9744 6.25C98.6562 5.62121 98.16 5.13257 97.4858 4.78409C96.8191 4.42803 95.9593 4.25 94.9062 4.25H91.0426V24H86.8267Z" fill="#B842CF"/>
    <path d="M128.216 12.3636C128.216 14.8712 127.746 17.0189 126.807 18.8068C125.875 20.5871 124.602 21.9508 122.989 22.8977C121.383 23.8447 119.561 24.3182 117.523 24.3182C115.485 24.3182 113.659 23.8447 112.045 22.8977C110.439 21.9432 109.167 20.5758 108.227 18.7955C107.295 17.0076 106.83 14.8636 106.83 12.3636C106.83 9.85606 107.295 7.71212 108.227 5.93182C109.167 4.14394 110.439 2.77651 112.045 1.82954C113.659 0.882573 115.485 0.409088 117.523 0.409088C119.561 0.409088 121.383 0.882573 122.989 1.82954C124.602 2.77651 125.875 4.14394 126.807 5.93182C127.746 7.71212 128.216 9.85606 128.216 12.3636ZM123.977 12.3636C123.977 10.5985 123.701 9.10985 123.148 7.89772C122.602 6.67803 121.845 5.75757 120.875 5.13636C119.905 4.50757 118.788 4.19318 117.523 4.19318C116.258 4.19318 115.14 4.50757 114.17 5.13636C113.201 5.75757 112.439 6.67803 111.886 7.89772C111.341 9.10985 111.068 10.5985 111.068 12.3636C111.068 14.1288 111.341 15.6212 111.886 16.8409C112.439 18.053 113.201 18.9735 114.17 19.6023C115.14 20.2235 116.258 20.5341 117.523 20.5341C118.788 20.5341 119.905 20.2235 120.875 19.6023C121.845 18.9735 122.602 18.053 123.148 16.8409C123.701 15.6212 123.977 14.1288 123.977 12.3636Z" fill="#B842CF"/>
    <path d="M130.148 4.26136V0.72727H148.716V4.26136H141.523V24H137.341V4.26136H130.148Z" fill="#B842CF"/>
</svg>